<?xml version="1.0" encoding="utf-8"?>
<!-- Generator: Adobe Illustrator 16.0.0, SVG Export Plug-In . SVG Version: 6.00 Build 0)  -->
<!DOCTYPE svg PUBLIC "-//W3C//DTD SVG 1.1//EN" "http://www.w3.org/Graphics/SVG/1.1/DTD/svg11.dtd">
<svg version="1.1" id="Layer_1" xmlns="http://www.w3.org/2000/svg" xmlns:xlink="http://www.w3.org/1999/xlink" x="0px" y="0px"
	 width="88px" height="43px" viewBox="0 0 88 43" enable-background="new 0 0 88 43" xml:space="preserve">
<g>
	<g id="XMLID_738_">
		<path id="XMLID_754_" d="M19.79,35.538c0-0.963-0.512-1.837-1.566-1.837c-1.428,0-1.898,1.336-1.898,3.354
			c0,1.93,0.393,3.377,1.838,3.377c1.387,0,1.717-1.629,1.717-2.189h0.424c0,0.844-0.424,2.531-2.211,2.531
			c-1.558,0-2.19-1.377-2.19-3.696c0-2.25,0.633-3.718,2.302-3.718c1.676,0,2.008,1.479,2.008,2.18L19.79,35.538L19.79,35.538z"/>
		<path id="XMLID_751_" d="M28.771,37.064c0,3.146-1.296,3.707-2.312,3.707c-1.376,0-2.317-0.924-2.317-3.707
			c0-2.781,1.002-3.705,2.317-3.705C27.886,33.359,28.771,34.283,28.771,37.064z M24.562,37.064c0,1.97,0.402,3.365,1.897,3.365
			c1.317,0,1.89-1.085,1.89-3.365c0-1.938-0.434-3.363-1.89-3.363C25.054,33.701,24.562,35.098,24.562,37.064z"/>
		<path id="XMLID_749_" d="M37.911,34.021h-0.022l-2.058,6.629h-0.423l-2.058-6.629h-0.021v6.629h-0.422v-7.172h0.684l2.038,6.449
			h0.021l1.988-6.449h0.693v7.172H37.91L37.911,34.021L37.911,34.021z"/>
		<path id="XMLID_746_" d="M42.701,33.479h1.857c1.678,0.03,1.949,1.215,1.949,1.989c0,1.216-0.755,1.989-2.041,1.989h-1.345v3.193
			H42.7L42.701,33.479L42.701,33.479z M44.508,37.115c0.855,0,1.577-0.463,1.577-1.646c0-1.023-0.542-1.646-1.517-1.646h-1.445
			v3.293L44.508,37.115L44.508,37.115z"/>
		<path id="XMLID_743_" d="M53.348,38.423h-2.701l-0.684,2.229H49.54l2.229-7.172h0.532l2.148,7.172h-0.421L53.348,38.423z
			 M52.031,33.902h-0.02l-1.266,4.178h2.52L52.031,33.902z"/>
		<path id="XMLID_741_" d="M58.732,33.479l3.123,6.51h0.02v-6.51h0.421v7.172h-0.551l-3.136-6.508h-0.018v6.508h-0.425v-7.172
			H58.732z"/>
		<path id="XMLID_739_" d="M68.07,37.698l-1.957-4.22h0.462l1.707,3.776l1.749-3.776h0.421l-1.957,4.22v2.952H68.07V37.698z"/>
	</g>
	<g id="XMLID_734_">
		<path id="XMLID_735_" d="M48.896,27.968H24.835l11.749-25.74L48.896,27.968z M26.413,26.952h20.873L36.606,4.625L26.413,26.952z"
			/>
	</g>
	<g id="XMLID_730_">
		<path id="XMLID_731_" d="M56.995,27.968H32.933l11.75-25.74L56.995,27.968z M34.511,26.952h20.873L44.705,4.625L34.511,26.952z"/>
	</g>
	<g id="XMLID_716_">
		<polygon id="XMLID_729_" points="25.624,3.239 2.492,3.239 2.492,11.482 7.545,11.482 7.545,27.968 20.573,27.968 20.573,11.482 
			25.624,11.482 		"/>
	</g>
	<g id="XMLID_636_">
		<polygon id="XMLID_637_" points="77.021,15.343 84.922,3.75 74.465,3.75 71.827,8.358 69.337,3.75 58.631,3.75 66.602,15.343 
			58.048,27.968 68.518,27.968 71.721,22.747 74.66,27.968 85.508,27.968 		"/>
	</g>
</g>
</svg>
